<svg width="108" height="105" viewBox="0 0 108 105" fill="none" xmlns="http://www.w3.org/2000/svg">
<path d="M70.0614 31L75.1526 36.0912L62.6368 48.607C61.2309 50.0128 58.9515 50.0128 57.5456 48.607V48.607C56.1397 47.2011 56.1397 44.9217 57.5456 43.5158L70.0614 31Z" fill="#6EB8FF"/>
<path d="M90.8968 10.5054C92.3027 9.09951 94.5821 9.09951 95.988 10.5054V10.5054C97.3939 11.9113 97.3939 14.1907 95.988 15.5966L83.4722 28.1124L78.381 23.0212L90.8968 10.5054Z" fill="#6EB8FF" fill-opacity="0.5"/>
<path d="M79.4586 33.4587C77.2703 35.647 73.6373 35.6645 71.3438 33.371C69.0503 31.0775 69.0678 27.4446 71.2562 25.2562C73.4446 23.0678 77.0775 23.0504 79.371 25.3439C81.6645 27.6374 81.647 31.2703 79.4586 33.4587Z" stroke="#6EB8FF" stroke-width="6"/>
<path d="M29.1974 81.2557L24.1062 76.1645L48.3311 51.9397C49.737 50.5338 52.0164 50.5338 53.4223 51.9397V51.9397C54.8282 53.3455 54.8282 55.6249 53.4223 57.0308L29.1974 81.2557Z" fill="#B4B4B4"/>
<path d="M20.0308 90.4222C18.6249 91.8281 16.3455 91.8281 14.9396 90.4222V90.4222C13.5338 89.0163 13.5338 86.7369 14.9396 85.331L16.2981 83.9726L21.3893 89.0637L20.0308 90.4222Z" fill="#C2C2C2" fill-opacity="0.5"/>
<path d="M18.9293 78.7958C21.1177 76.6074 24.7506 76.5899 27.0441 78.8834C29.3376 81.1769 29.3201 84.8098 27.1317 86.9982C24.9434 89.1866 21.3105 89.2041 19.0169 86.9106C16.7234 84.6171 16.7409 80.9841 18.9293 78.7958Z" stroke="#B4B4B4" stroke-width="6"/>
<path d="M36.3839 35.9094L41.4751 30.8182L53.9879 43.331C55.3938 44.7369 55.3938 47.0163 53.9879 48.4222V48.4222C52.582 49.8281 50.3026 49.8281 48.8967 48.4222L36.3839 35.9094Z" fill="#F9C55C"/>
<path d="M15.5054 15.0308C14.0995 13.6249 14.0995 11.3455 15.5054 9.93965V9.93965C16.9113 8.53376 19.1907 8.53376 20.5966 9.93964L33.1094 22.4524L28.0182 27.5436L15.5054 15.0308Z" fill="#FBEAC0"/>
<path d="M38.8519 24.518C40.953 26.6192 41.0215 30.3755 38.4814 32.9156C35.9412 35.4558 32.1849 35.3873 30.0837 33.2861C27.9826 31.185 27.9141 27.4286 30.4542 24.8885C32.9944 22.3483 36.7507 22.4168 38.8519 24.518Z" stroke="#F9C55C" stroke-width="6"/>
<path d="M86.8135 77.288L81.7223 82.3791L56.9397 57.5965C55.5338 56.1906 55.5338 53.9113 56.9397 52.5054V52.5054C58.3456 51.0995 60.625 51.0995 62.0309 52.5054L86.8135 77.288Z" fill="#FD6E48"/>
<path d="M95.4222 85.8967C96.8281 87.3026 96.8281 89.582 95.4222 90.9879V90.9879C94.0163 92.3938 91.7369 92.3938 90.331 90.9879L88.4149 89.0717L93.506 83.9806L95.4222 85.8967Z" fill="#FD6E48" fill-opacity="0.5"/>
<path d="M83.7959 86.9982C81.6075 84.8098 81.59 81.1769 83.8835 78.8834C86.177 76.5899 89.8099 76.6074 91.9983 78.7958C94.1867 80.9841 94.2042 84.6171 91.9107 86.9106C89.6171 89.2041 85.9842 89.1866 83.7959 86.9982Z" stroke="#FD6E48" stroke-width="6"/>
</svg>
