<svg width="96" height="84" viewBox="0 0 96 84" fill="none" xmlns="http://www.w3.org/2000/svg">
<path d="M77.88 53.8873H68.88V12.4155C68.88 9.93022 70.8947 7.9155 73.38 7.9155V7.9155C75.8653 7.9155 77.88 9.93022 77.88 12.4155V53.8873Z" fill="#6EB8FF"/>
<path d="M77.88 69.5C77.88 71.9853 75.8653 74 73.38 74V74C70.8947 74 68.88 71.9853 68.88 69.5V67.2958H77.88V69.5Z" fill="#6EB8FF" fill-opacity="0.5"/>
<circle cx="73.5" cy="61.5" r="7" transform="rotate(-180 73.5 61.5)" stroke="#6EB8FF" stroke-width="5"/>
<path d="M53 20H44V10.5C44 8.01472 46.0147 6 48.5 6V6C50.9853 6 53 8.01472 53 10.5V20Z" fill="#F9C55C"/>
<path d="M53 67.5C53 69.9853 50.9853 72 48.5 72V72C46.0147 72 44 69.9853 44 67.5V34H53L53 67.5Z" fill="#FBEAC0"/>
<circle cx="48.5" cy="27.5" r="7" transform="rotate(-180 48.5 27.5)" stroke="#F9C55C" stroke-width="5"/>
<path d="M27.4 54.8451H18.4L18.4 12.4155C18.4 9.93021 20.4147 7.91549 22.9 7.91549V7.91549C25.3853 7.91549 27.4 9.93021 27.4 12.4155L27.4 54.8451Z" fill="#FD6E48"/>
<path d="M27.4 69.5C27.4 71.9853 25.3853 74 22.9 74V74C20.4147 74 18.4 71.9853 18.4 69.5V66.338H27.4V69.5Z" fill="#FD6E48" fill-opacity="0.5"/>
<circle cx="22.62" cy="61.5704" r="7" transform="rotate(-180 22.62 61.5704)" stroke="#FD6E48" stroke-width="5"/>
</svg>
