<svg width="75" height="71" viewBox="0 0 75 71" fill="none" xmlns="http://www.w3.org/2000/svg">
<path d="M7 21H16V64.5C16 66.9853 13.9853 69 11.5 69V69C9.01472 69 7 66.9853 7 64.5V21Z" fill="#6EB8FF"/>
<path d="M7 4.5C7 2.01472 9.01472 0 11.5 0V0C13.9853 0 16 2.01472 16 4.5V7H7V4.5Z" fill="#6EB8FF" fill-opacity="0.5"/>
<circle cx="11" cy="14" r="8" stroke="#6EB8FF" stroke-width="6"/>
<path d="M33 44H42V66.5C42 68.9853 39.9853 71 37.5 71V71C35.0147 71 33 68.9853 33 66.5V44Z" fill="#F9C55C"/>
<path d="M33 6.5C33 4.01472 35.0147 2 37.5 2V2C39.9853 2 42 4.01472 42 6.5V29H33V6.5Z" fill="#F2B825" fill-opacity="0.29"/>
<path d="M46 36C46 40.294 42.3215 44 37.5 44C32.6785 44 29 40.294 29 36C29 31.706 32.6785 28 37.5 28C42.3215 28 46 31.706 46 36Z" stroke="#F9C55C" stroke-width="6"/>
<path d="M60 20H69V64.5C69 66.9853 66.9853 69 64.5 69V69C62.0147 69 60 66.9853 60 64.5V20Z" fill="#FD6E48"/>
<path d="M60 4.5C60 2.01472 62.0147 0 64.5 0V0C66.9853 0 69 2.01472 69 4.5V8H60V4.5Z" fill="#FD6E48" fill-opacity="0.5"/>
<circle cx="64" cy="14" r="8" stroke="#FD6E48" stroke-width="6"/>
</svg>
