<svg width="192" height="192" viewBox="0 0 192 192" fill="none" xmlns="http://www.w3.org/2000/svg">
<rect width="192" height="192" fill="white"/>
<path d="M75.424 162.928H78.352C78.784 162.928 79.2 162.896 79.6 162.832C80 162.768 80.352 162.648 80.656 162.472C80.96 162.28 81.2 162.016 81.376 161.68C81.568 161.344 81.664 160.904 81.664 160.36C81.664 159.816 81.568 159.376 81.376 159.04C81.2 158.704 80.96 158.448 80.656 158.272C80.352 158.08 80 157.952 79.6 157.888C79.2 157.824 78.784 157.792 78.352 157.792H75.424V162.928ZM71.656 154.864H79.384C80.456 154.864 81.368 155.024 82.12 155.344C82.872 155.648 83.48 156.056 83.944 156.568C84.424 157.08 84.768 157.664 84.976 158.32C85.2 158.976 85.312 159.656 85.312 160.36C85.312 161.048 85.2 161.728 84.976 162.4C84.768 163.056 84.424 163.64 83.944 164.152C83.48 164.664 82.872 165.08 82.12 165.4C81.368 165.704 80.456 165.856 79.384 165.856H75.424V172H71.656V154.864ZM99.0878 160.624C99.0238 160.192 98.8798 159.8 98.6558 159.448C98.4318 159.08 98.1518 158.76 97.8158 158.488C97.4798 158.216 97.0958 158.008 96.6638 157.864C96.2478 157.704 95.8078 157.624 95.3438 157.624C94.4958 157.624 93.7758 157.792 93.1838 158.128C92.5918 158.448 92.1118 158.888 91.7438 159.448C91.3758 159.992 91.1038 160.616 90.9278 161.32C90.7678 162.024 90.6878 162.752 90.6878 163.504C90.6878 164.224 90.7678 164.928 90.9278 165.616C91.1038 166.288 91.3758 166.896 91.7438 167.44C92.1118 167.984 92.5918 168.424 93.1838 168.76C93.7758 169.08 94.4958 169.24 95.3438 169.24C96.4958 169.24 97.3918 168.888 98.0318 168.184C98.6878 167.48 99.0878 166.552 99.2318 165.4H102.88C102.784 166.472 102.536 167.44 102.136 168.304C101.736 169.168 101.208 169.904 100.552 170.512C99.8958 171.12 99.1278 171.584 98.2478 171.904C97.3678 172.224 96.3998 172.384 95.3438 172.384C94.0318 172.384 92.8478 172.16 91.7918 171.712C90.7518 171.248 89.8718 170.616 89.1518 169.816C88.4318 169.016 87.8798 168.08 87.4958 167.008C87.1118 165.92 86.9198 164.752 86.9198 163.504C86.9198 162.224 87.1118 161.04 87.4958 159.952C87.8798 158.848 88.4318 157.888 89.1518 157.072C89.8718 156.256 90.7518 155.616 91.7918 155.152C92.8478 154.688 94.0318 154.456 95.3438 154.456C96.2878 154.456 97.1758 154.592 98.0078 154.864C98.8558 155.136 99.6078 155.536 100.264 156.064C100.936 156.576 101.488 157.216 101.92 157.984C102.352 158.752 102.624 159.632 102.736 160.624H99.0878ZM109.773 165.376H114.213L112.053 159.088H112.005L109.773 165.376ZM110.133 154.864H113.997L120.405 172H116.493L115.197 168.184H108.789L107.445 172H103.653L110.133 154.864Z" fill="#909090"/>
<path d="M142.023 102.826H128.148V36.953C128.148 34.1916 130.387 31.953 133.148 31.953H137.023C139.785 31.953 142.023 34.1916 142.023 36.953V102.826Z" fill="#6EB8FF"/>
<path d="M142.023 128.833C142.023 131.595 139.785 133.833 137.023 133.833H133.148C130.387 133.833 128.148 131.595 128.148 128.833V123.498H142.023V128.833Z" fill="#6EB8FF" fill-opacity="0.5"/>
<path d="M124.125 114.562C124.125 108.407 129.115 103.417 135.271 103.417C141.426 103.417 146.417 108.407 146.417 114.562C146.417 120.718 141.426 125.708 135.271 125.708C129.115 125.708 124.125 120.718 124.125 114.562Z" stroke="#6EB8FF" stroke-width="7"/>
<path d="M103.667 50.5833H89.7917V34C89.7917 31.2385 92.0303 28.9999 94.7917 28.9999H98.6667C101.428 28.9999 103.667 31.2385 103.667 33.9999V50.5833Z" fill="#F9C55C"/>
<path d="M103.667 125.75C103.667 128.511 101.428 130.75 98.6667 130.75H94.7917C92.0303 130.75 89.7917 128.511 89.7917 125.75V72.1666H103.667V125.75Z" fill="#FBEAC0"/>
<path d="M85.5833 62.1458C85.5833 55.9901 90.5735 51 96.7292 51C102.885 51 107.875 55.9901 107.875 62.1458C107.875 68.3015 102.885 73.2916 96.7292 73.2916C90.5735 73.2916 85.5833 68.3015 85.5833 62.1458Z" stroke="#F9C55C" stroke-width="7"/>
<path d="M64.2 104.303H50.325L50.325 36.953C50.325 34.1916 52.5635 31.953 55.3249 31.953H59.2C61.9614 31.953 64.2 34.1916 64.2 36.953L64.2 104.303Z" fill="#FD6E48"/>
<path d="M64.2 128.833C64.2 131.595 61.9614 133.833 59.2 133.833H55.325C52.5635 133.833 50.325 131.595 50.325 128.833V122.021H64.2V128.833Z" fill="#FD6E48" fill-opacity="0.5"/>
<path d="M45.6849 114.671C45.6849 108.515 50.6751 103.525 56.8307 103.525C62.9864 103.525 67.9766 108.515 67.9766 114.671C67.9766 120.827 62.9864 125.817 56.8307 125.817C50.6751 125.817 45.6849 120.827 45.6849 114.671Z" stroke="#FD6E48" stroke-width="7"/>
</svg>
